<?xml version="1.0" standalone="no"?>
<!DOCTYPE svg PUBLIC "-//W3C//DTD SVG 20010904//EN"
 "http://www.w3.org/TR/2001/REC-SVG-20010904/DTD/svg10.dtd">
<svg version="1.0" xmlns="http://www.w3.org/2000/svg"
 width="1100.000000pt" height="1100.000000pt" viewBox="0 0 1100.000000 1100.000000"
 preserveAspectRatio="xMidYMid meet">
<metadata>
Created by potrace 1.11, written by Peter Selinger 2001-2013
</metadata>
<g transform="translate(0.000000,1100.000000) scale(0.100000,-0.100000)"
fill="#000000" stroke="none">
<path d="M0 5500 l0 -5500 5500 0 5500 0 0 5500 0 5500 -5500 0 -5500 0 0
-5500z m7428 3190 c127 -18 245 -98 307 -207 56 -100 55 -63 55 -1535 l0
-1358 -2290 0 -2290 0 0 1358 c0 1472 -1 1435 55 1535 60 105 181 190 298 207
75 11 3789 11 3865 0z m362 -4485 l0 -1215 -2290 0 -2290 0 0 1215 0 1215
2290 0 2290 0 0 -1215z m0 -1442 c0 -90 -22 -187 -55 -246 -62 -109 -180 -189
-307 -207 -83 -13 -3773 -13 -3856 0 -127 18 -245 98 -307 207 -33 59 -55 156
-55 246 l0 67 2290 0 2290 0 0 -67z"/>
<path d="M5290 7739 c-258 -43 -464 -121 -655 -247 -89 -59 -245 -187 -245
-200 0 -4 45 -52 100 -107 l99 -99 38 32 c202 173 391 268 633 319 61 13 129
18 240 18 334 0 597 -101 873 -337 l38 -32 102 103 102 102 -50 46 c-242 218
-518 349 -840 399 -100 15 -349 17 -435 3z"/>
<path d="M5333 7166 c-169 -32 -329 -106 -462 -212 l-83 -67 105 -105 105
-105 53 46 c120 105 278 161 454 161 167 0 307 -50 444 -156 l64 -50 100 100
101 101 -20 22 c-39 44 -179 141 -262 180 -174 83 -422 119 -599 85z"/>
<path d="M5440 6603 c-66 -12 -130 -37 -179 -71 -30 -20 -56 -42 -58 -47 -2
-6 66 -79 150 -163 l152 -152 154 154 154 154 -29 26 c-86 75 -235 118 -344
99z"/>
<path d="M4530 4770 c-30 -30 -33 -57 -27 -258 4 -158 9 -202 31 -287 46 -175
128 -324 251 -454 204 -215 452 -322 745 -322 219 0 386 51 575 176 72 48 208
176 246 231 13 20 19 21 69 13 258 -41 497 204 451 463 -28 160 -131 276 -293
331 -12 4 -18 17 -18 37 0 21 -9 41 -29 61 l-29 29 -976 0 c-958 0 -976 0
-996 -20z m1857 -287 c-7 -171 -30 -265 -97 -398 -84 -168 -208 -291 -375
-375 -137 -69 -230 -92 -380 -92 -133 -1 -223 16 -334 62 -235 96 -423 307
-496 555 -22 73 -28 118 -32 238 l-6 147 863 0 863 0 -6 -137z m246 -45 c76
-76 94 -153 61 -251 -27 -79 -132 -157 -213 -157 -11 0 -21 1 -21 3 0 1 13 37
29 79 34 87 56 189 66 301 4 42 11 77 17 77 5 0 33 -24 61 -52z"/>
<path d="M4855 4319 c-54 -31 -59 -80 -15 -171 71 -148 205 -284 353 -357 97
-47 179 -69 286 -78 76 -6 80 -5 105 20 51 51 24 131 -46 141 -137 19 -186 29
-231 48 -131 55 -253 170 -312 292 -19 40 -43 80 -52 89 -25 22 -64 29 -88 16z"/>
</g>
</svg>
