<?xml version="1.0" encoding="UTF-8" standalone="no"?><!DOCTYPE svg PUBLIC "-//W3C//DTD SVG 1.1//EN" "http://www.w3.org/Graphics/SVG/1.1/DTD/svg11.dtd"><svg width="100%" height="100%" viewBox="0 0 80 36" version="1.1" xmlns="http://www.w3.org/2000/svg" xmlns:xlink="http://www.w3.org/1999/xlink" xml:space="preserve" xmlns:serif="http://www.serif.com/" style="fill-rule:evenodd;clip-rule:evenodd;stroke-linecap:round;stroke-linejoin:round;stroke-miterlimit:1.5;"><rect id="Versione-mobile-03" serif:id="Versione mobile 03" x="-120" y="-9" width="320" height="55" style="fill:none;"/><g><g><g><path d="M38.87,19.377c1.979,0 3.746,-0.754 5.041,-2.261l-2.12,-2.544c-0.659,0.706 -1.602,1.319 -2.779,1.319c-1.979,0 -3.298,-1.602 -3.298,-4.476c0,-2.78 1.554,-4.429 3.345,-4.429c1.036,0 1.79,0.471 2.544,1.131l2.12,-2.591c-1.084,-1.084 -2.733,-2.026 -4.759,-2.026c-3.863,0 -7.396,2.921 -7.396,8.056c0,5.23 3.392,7.821 7.302,7.821Z" style="fill:#fff;fill-rule:nonzero;"/><path d="M49.989,11.651c0.377,-1.461 0.754,-3.298 1.083,-4.853l0.095,0c0.377,1.531 0.753,3.392 1.13,4.853l0.259,1.06l-2.826,0l0.259,-1.06Zm-5.889,7.443l4.146,0l0.753,-3.25l4.288,0l0.754,3.25l4.287,0l-4.664,-15.311l-4.9,0l-4.664,15.311Z" style="fill:#fff;fill-rule:nonzero;"/><path d="M59.788,19.094l4.052,0l0,-5.135l1.555,0l2.638,5.135l4.523,0l-3.322,-5.936c1.484,-0.801 2.474,-2.238 2.474,-4.428c0,-3.817 -2.827,-4.947 -6.125,-4.947l-5.795,0l0,15.311Zm4.052,-8.339l0,-3.769l1.46,0c1.602,0 2.45,0.424 2.45,1.744c0,1.319 -0.848,2.025 -2.45,2.025l-1.46,0Z" style="fill:#fff;fill-rule:nonzero;"/><rect x="74.629" y="3.783" width="4.052" height="15.312" style="fill:#fff;fill-rule:nonzero;"/></g><g><path d="M38.365,34.5c1.197,0 2.67,-0.322 3.82,-1.335l-1.519,-2.578c-0.552,0.415 -1.197,0.737 -1.841,0.737c-1.243,0 -2.209,-1.105 -2.209,-2.854c0,-1.749 0.874,-2.854 2.347,-2.854c0.414,0 0.783,0.138 1.289,0.553l1.841,-2.532c-0.874,-0.737 -1.979,-1.197 -3.36,-1.197c-3.268,0 -6.168,2.209 -6.168,6.03c0,3.821 2.532,6.03 5.8,6.03Z" style="fill:#fff;fill-opacity:0.65098;fill-rule:nonzero;"/><path d="M47.801,34.488c1.243,0 2.255,-0.552 3.176,-1.38l0.092,0l0.276,1.104l3.222,0l0,-6.398c0,-3.774 -1.795,-5.385 -4.787,-5.385c-1.795,0 -3.452,0.552 -5.063,1.519l1.381,2.577c1.197,-0.644 2.071,-0.966 2.9,-0.966c1.012,0 1.519,0.368 1.611,1.196c-4.419,0.461 -6.26,1.796 -6.26,4.189c0,1.887 1.288,3.544 3.452,3.544Zm1.381,-3.038c-0.691,0 -1.059,-0.299 -1.059,-0.828c0,-0.644 0.598,-1.243 2.486,-1.519l0,1.565c-0.415,0.46 -0.783,0.782 -1.427,0.782Z" style="fill:#fff;fill-opacity:0.65098;fill-rule:nonzero;"/><path d="M58.249,34.212l3.959,0l0,-6.398c0.552,-1.427 1.565,-1.933 2.393,-1.933c0.506,0 0.875,0.092 1.289,0.184l0.644,-3.406c-0.322,-0.138 -0.713,-0.23 -1.427,-0.23c-1.127,0 -2.416,0.69 -3.268,2.255l-0.092,0l-0.276,-1.979l-3.222,0l0,11.507Z" style="fill:#fff;fill-opacity:0.65098;fill-rule:nonzero;"/><path d="M74.077,34.488c1.289,0 2.946,-0.46 4.189,-1.334l-1.289,-2.348c-0.828,0.46 -1.565,0.691 -2.347,0.691c-1.289,0 -2.302,-0.461 -2.67,-1.842l6.559,0c0.069,-0.276 0.162,-0.966 0.162,-1.657c0,-3.084 -1.612,-5.569 -5.018,-5.569c-2.808,0 -5.523,2.301 -5.523,6.03c0,3.82 2.577,6.029 5.937,6.029Zm-2.163,-7.41c0.23,-1.151 0.967,-1.658 1.841,-1.658c1.197,0 1.565,0.783 1.565,1.658l-3.406,0Z" style="fill:#fff;fill-opacity:0.65098;fill-rule:nonzero;"/></g></g><g><path d="M23,4.008c0,-1.108 -0.9,-2.008 -2.008,-2.008l-17.984,0c-1.108,0 -2.008,0.9 -2.008,2.008l0,27.984c0,1.108 0.9,2.008 2.008,2.008l17.984,0c1.108,0 2.008,-0.9 2.008,-2.008l0,-27.984Z" style="fill:none;stroke:#fff;stroke-width:1.47px;"/><path d="M23,18l-22,0" style="fill:none;stroke:#fff;stroke-width:1px;"/><path d="M23,31l-22,0" style="fill:none;stroke:#fff;stroke-width:1px;"/><path id="wifi" d="M6.439,9.058l1.006,1.007c2.516,-2.516 6.594,-2.516 9.11,0l1.006,-1.007c-3.054,-3.071 -8.051,-3.071 -11.122,0Zm4.043,4.043l1.527,1.527l1.527,-1.527c-0.851,-0.833 -2.204,-0.833 -3.054,0Zm-2.013,-2.013l1.006,1.007c1.406,-1.406 3.662,-1.406 5.067,0l1.006,-1.007c-1.96,-1.96 -5.118,-1.96 -7.079,0Z" style="fill:#fff;fill-rule:nonzero;"/><g><path d="M16.724,22.534c0.886,0 1.606,0.724 1.606,1.617c0,0.892 -0.72,1.617 -1.606,1.617c-0.254,0 -0.494,-0.059 -0.707,-0.165c0.448,-0.727 0.707,-1.584 0.707,-2.501l0,-0.568Z" style="fill:none;stroke:#fff;stroke-width:0.8px;"/><path d="M16.724,23.102c0,2.624 -2.117,4.755 -4.724,4.755c-2.607,0 -4.724,-2.131 -4.724,-4.755l0,-1.14l9.448,0l0,1.14Z" style="fill:none;stroke:#fff;stroke-width:0.8px;"/><path d="M12,26.534c-1.469,0 -2.722,-0.937 -3.201,-2.249" style="fill:none;stroke:#fff;stroke-width:0.8px;"/></g></g></g></svg>