<?xml version="1.0" encoding="UTF-8" standalone="no"?><!DOCTYPE svg PUBLIC "-//W3C//DTD SVG 1.1//EN" "http://www.w3.org/Graphics/SVG/1.1/DTD/svg11.dtd"><svg width="100%" height="100%" viewBox="0 0 62 84" version="1.1" xmlns="http://www.w3.org/2000/svg" xmlns:xlink="http://www.w3.org/1999/xlink" xml:space="preserve" xmlns:serif="http://www.serif.com/" style="fill-rule:evenodd;clip-rule:evenodd;stroke-linecap:round;stroke-linejoin:round;stroke-miterlimit:1.5;"><rect id="Versione-desktop-01" serif:id="Versione desktop 01" x="-129" y="-18" width="320" height="120" style="fill:none;"/><g><path d="M59.665,7.232c0,-2.888 -2.344,-5.232 -5.232,-5.232l-46.866,0c-2.888,0 -5.232,2.344 -5.232,5.232l0,69.536c0,2.888 2.344,5.232 5.232,5.232l46.866,0c2.888,0 5.232,-2.344 5.232,-5.232l0,-69.536Z" style="fill:none;stroke:#fff;stroke-width:3.49px;"/><path d="M46.15,10.719c0,-1.443 -1.172,-2.615 -2.616,-2.615l-25.068,0c-1.444,0 -2.616,1.172 -2.616,2.615l0,15.477c0,1.444 1.172,2.616 2.616,2.616l25.068,0c1.444,0 2.616,-1.172 2.616,-2.616l0,-15.477Z" style="fill:none;stroke:#fff;stroke-width:1.53px;"/><path d="M18.516,41.891l-16.181,0" style="fill:none;stroke:#fff;stroke-width:1.53px;"/><path d="M59.665,41.891l-16.181,0" style="fill:none;stroke:#fff;stroke-width:1.53px;"/><path d="M43.484,67.722c0,-0.541 -0.439,-0.981 -0.981,-0.981l-23.006,0c-0.542,0 -0.981,0.44 -0.981,0.981l0,1.962c0,0.541 0.439,0.981 0.981,0.981l23.006,0c0.542,0 0.981,-0.44 0.981,-0.981l0,-1.962Z" style="fill:none;stroke:#fff;stroke-width:1.53px;"/><path d="M59.665,74.371l-57.33,0" style="fill:none;stroke:#fff;stroke-width:1.53px;"/><g><path d="M39.749,54.207c1.701,0 3.081,1.381 3.081,3.081c0,1.701 -1.38,3.082 -3.081,3.082c-0.486,0 -0.946,-0.113 -1.355,-0.314c0.859,-1.385 1.355,-3.018 1.355,-4.766l0,-1.083Z" style="fill:none;stroke:#fff;stroke-width:1.53px;"/><path d="M39.749,55.29c0,5 -4.06,9.061 -9.061,9.061c-5.001,0 -9.061,-4.061 -9.061,-9.061l0,-2.173l18.122,0l0,2.173Z" style="fill:none;stroke:#fff;stroke-width:1.53px;"/><path d="M30.688,61.829c-2.818,0 -5.221,-1.785 -6.14,-4.286" style="fill:none;stroke:#fff;stroke-width:1.53px;"/></g><g><path d="M22.589,18.584c1.024,0 1.938,-0.39 2.609,-1.17l-1.097,-1.317c-0.342,0.366 -0.829,0.683 -1.439,0.683c-1.024,0 -1.706,-0.829 -1.706,-2.316c0,-1.438 0.804,-2.292 1.731,-2.292c0.536,0 0.926,0.244 1.316,0.585l1.097,-1.34c-0.561,-0.561 -1.414,-1.049 -2.462,-1.049c-1.999,0 -3.828,1.512 -3.828,4.169c0,2.706 1.756,4.047 3.779,4.047Z" style="fill:#fff;fill-rule:nonzero;"/><path d="M28.343,14.586c0.195,-0.756 0.39,-1.707 0.56,-2.511l0.049,0c0.195,0.792 0.39,1.755 0.585,2.511l0.134,0.548l-1.462,0l0.134,-0.548Zm-3.048,3.852l2.146,0l0.39,-1.682l2.218,0l0.39,1.682l2.219,0l-2.414,-7.923l-2.535,0l-2.414,7.923Z" style="fill:#fff;fill-rule:nonzero;"/><path d="M33.414,18.438l2.096,0l0,-2.658l0.805,0l1.365,2.658l2.34,0l-1.718,-3.072c0.768,-0.414 1.28,-1.158 1.28,-2.292c0,-1.974 -1.463,-2.559 -3.17,-2.559l-2.998,0l0,7.923Zm2.096,-4.315l0,-1.951l0.756,0c0.829,0 1.268,0.22 1.268,0.902c0,0.683 -0.439,1.049 -1.268,1.049l-0.756,0Z" style="fill:#fff;fill-rule:nonzero;"/><rect x="41.093" y="10.515" width="2.097" height="7.923" style="fill:#fff;fill-rule:nonzero;"/></g><g><path d="M21.794,26.418c0.619,0 1.381,-0.167 1.977,-0.691l-0.786,-1.333c-0.286,0.214 -0.619,0.381 -0.953,0.381c-0.643,0 -1.143,-0.572 -1.143,-1.477c0,-0.905 0.452,-1.477 1.215,-1.477c0.214,0 0.404,0.071 0.666,0.286l0.953,-1.31c-0.452,-0.381 -1.024,-0.619 -1.739,-0.619c-1.691,0 -3.191,1.143 -3.191,3.12c0,1.977 1.31,3.12 3.001,3.12Z" style="fill:#fff;fill-opacity:0.65098;fill-rule:nonzero;"/><path d="M26.891,26.418c0.643,0 1.167,-0.286 1.644,-0.714l0.047,0l0.143,0.571l1.668,0l0,-3.311c0,-1.953 -0.929,-2.786 -2.478,-2.786c-0.929,0 -1.786,0.285 -2.62,0.786l0.715,1.333c0.619,-0.333 1.072,-0.5 1.5,-0.5c0.525,0 0.787,0.191 0.834,0.62c-2.286,0.238 -3.239,0.928 -3.239,2.167c0,0.977 0.667,1.834 1.786,1.834Zm0.715,-1.572c-0.358,0 -0.548,-0.155 -0.548,-0.429c0,-0.333 0.31,-0.643 1.286,-0.786l0,0.81c-0.214,0.238 -0.405,0.405 -0.738,0.405Z" style="fill:#fff;fill-opacity:0.65098;fill-rule:nonzero;"/><path d="M32.465,26.275l2.048,0l0,-3.311c0.286,-0.738 0.81,-1 1.239,-1c0.262,0 0.452,0.048 0.667,0.095l0.333,-1.762c-0.166,-0.072 -0.369,-0.119 -0.738,-0.119c-0.584,0 -1.251,0.357 -1.691,1.167l-0.048,0l-0.143,-1.025l-1.667,0l0,5.955Z" style="fill:#fff;fill-opacity:0.65098;fill-rule:nonzero;"/><path d="M40.825,26.418c0.667,0 1.525,-0.238 2.168,-0.691l-0.667,-1.214c-0.429,0.238 -0.81,0.357 -1.215,0.357c-0.667,0 -1.191,-0.238 -1.381,-0.953l3.394,0c0.036,-0.143 0.083,-0.5 0.083,-0.857c0,-1.596 -0.833,-2.882 -2.596,-2.882c-1.453,0 -2.858,1.19 -2.858,3.12c0,1.977 1.334,3.12 3.072,3.12Zm-1.119,-3.835c0.119,-0.595 0.5,-0.857 0.953,-0.857c0.619,0 0.81,0.405 0.81,0.857l-1.763,0Z" style="fill:#fff;fill-opacity:0.65098;fill-rule:nonzero;"/></g><path id="wifi" d="M20.526,38.815l1.895,1.895c4.739,-4.738 12.419,-4.738 17.158,0l1.895,-1.895c-5.752,-5.785 -15.164,-5.785 -20.948,0Zm7.614,7.615l2.876,2.875l2.876,-2.875c-1.601,-1.569 -4.15,-1.569 -5.752,0Zm-3.79,-3.791l1.895,1.895c2.647,-2.647 6.896,-2.647 9.543,0l1.895,-1.895c-3.693,-3.693 -9.641,-3.693 -13.333,0Z" style="fill:#fff;fill-rule:nonzero;"/></g></svg>