<?xml version="1.0" encoding="UTF-8" standalone="no"?>
        <!DOCTYPE svg PUBLIC "-//W3C//DTD SVG 1.1//EN" "http://www.w3.org/Graphics/SVG/1.1/DTD/svg11.dtd">
<svg width="250px" height="100%" viewBox="0 0 49 28" version="1.1" xmlns="http://www.w3.org/2000/svg"
xmlns:xlink="http://www.w3.org/1999/xlink" xml:space="preserve"
style="fill-rule:evenodd;clip-rule:evenodd;stroke-linejoin:round;stroke-miterlimit:1.41421;"><g><g><path d="M0.24,24.068c0,-0.53 0.093,-1.009 0.28,-1.439c0.187,-0.43 0.443,-0.797 0.766,-1.102c0.324,-0.306 0.706,-0.541 1.145,-0.706c0.439,-0.165 0.908,-0.247 1.406,-0.247c0.511,0 0.994,0.082 1.448,0.247c0.455,0.165 0.835,0.388 1.14,0.668l-1.364,1.645c-0.125,-0.162 -0.28,-0.285 -0.467,-0.369c-0.187,-0.085 -0.396,-0.127 -0.626,-0.127c-0.187,0 -0.361,0.033 -0.523,0.098c-0.162,0.066 -0.304,0.161 -0.425,0.285c-0.122,0.125 -0.217,0.276 -0.285,0.454c-0.069,0.177 -0.103,0.375 -0.103,0.593c0,0.218 0.036,0.412 0.107,0.584c0.072,0.171 0.168,0.319 0.29,0.444c0.121,0.124 0.263,0.219 0.425,0.285c0.162,0.065 0.333,0.098 0.514,0.098c0.255,0 0.475,-0.053 0.659,-0.159c0.183,-0.106 0.328,-0.231 0.434,-0.374l1.364,1.635c-0.299,0.299 -0.666,0.537 -1.102,0.715c-0.436,0.177 -0.932,0.266 -1.486,0.266c-0.498,0 -0.967,-0.084 -1.406,-0.252c-0.439,-0.168 -0.821,-0.407 -1.145,-0.715c-0.323,-0.308 -0.579,-0.676 -0.766,-1.102c-0.187,-0.427 -0.28,-0.902 -0.28,-1.425Z" style="fill:#0f75bd;fill-rule:nonzero;"/><path
        d="M8.981,20.76l2.364,0l2.578,6.615l-2.419,0l-0.346,-0.971l-2.102,0l-0.327,0.971l-2.355,0l2.607,-6.615Zm1.149,2.308l-0.542,1.635l1.075,0l-0.533,-1.635Z"
        style="fill:#0f75bd;fill-rule:nonzero;"/><path
        d="M14.232,20.76l2.85,0c0.324,0 0.646,0.033 0.967,0.099c0.321,0.065 0.607,0.18 0.86,0.345c0.252,0.165 0.456,0.386 0.612,0.664c0.155,0.277 0.233,0.624 0.233,1.041c0,0.405 -0.1,0.762 -0.299,1.07c-0.199,0.308 -0.486,0.547 -0.859,0.715l1.681,2.681l-2.56,0l-1.27,-2.364l-0.066,0l0,2.364l-2.149,0l0,-6.615Zm2.131,2.794l0.439,0c0.074,0 0.157,-0.006 0.247,-0.019c0.091,-0.012 0.175,-0.039 0.253,-0.079c0.077,-0.041 0.143,-0.097 0.196,-0.168c0.053,-0.072 0.079,-0.167 0.079,-0.285c0,-0.119 -0.022,-0.212 -0.065,-0.281c-0.044,-0.068 -0.1,-0.119 -0.168,-0.154c-0.069,-0.034 -0.144,-0.056 -0.225,-0.065c-0.081,-0.009 -0.155,-0.014 -0.224,-0.014l-0.532,0l0,1.065Z"
        style="fill:#0f75bd;fill-rule:nonzero;"/><rect x="20.534" y="20.76" width="2.242" height="6.615"
                                                       style="fill:#0f75bd;fill-rule:nonzero;"/><path
        d="M23.184,24.068c0,-0.53 0.093,-1.009 0.28,-1.439c0.187,-0.43 0.443,-0.797 0.766,-1.102c0.324,-0.306 0.706,-0.541 1.145,-0.706c0.439,-0.165 0.908,-0.247 1.406,-0.247c0.511,0 0.994,0.082 1.448,0.247c0.455,0.165 0.835,0.388 1.14,0.668l-1.364,1.645c-0.125,-0.162 -0.28,-0.285 -0.467,-0.369c-0.187,-0.085 -0.396,-0.127 -0.626,-0.127c-0.187,0 -0.361,0.033 -0.523,0.098c-0.162,0.066 -0.304,0.161 -0.425,0.285c-0.122,0.125 -0.217,0.276 -0.285,0.454c-0.069,0.177 -0.103,0.375 -0.103,0.593c0,0.218 0.036,0.412 0.107,0.584c0.072,0.171 0.168,0.319 0.29,0.444c0.121,0.124 0.263,0.219 0.425,0.285c0.162,0.065 0.333,0.098 0.514,0.098c0.255,0 0.475,-0.053 0.659,-0.159c0.183,-0.106 0.328,-0.231 0.434,-0.374l1.364,1.635c-0.299,0.299 -0.666,0.537 -1.102,0.715c-0.436,0.177 -0.932,0.266 -1.486,0.266c-0.498,0 -0.967,-0.084 -1.406,-0.252c-0.439,-0.168 -0.821,-0.407 -1.145,-0.715c-0.323,-0.308 -0.579,-0.676 -0.766,-1.102c-0.187,-0.427 -0.28,-0.902 -0.28,-1.425Z"
        style="fill:#25aae2;fill-rule:nonzero;"/><path
        d="M31.925,20.76l2.364,0l2.578,6.615l-2.419,0l-0.346,-0.971l-2.102,0l-0.327,0.971l-2.355,0l2.607,-6.615Zm1.149,2.308l-0.542,1.635l1.075,0l-0.533,-1.635Z"
        style="fill:#25aae2;fill-rule:nonzero;"/><path
        d="M37.176,20.76l2.85,0c0.324,0 0.646,0.033 0.967,0.099c0.321,0.065 0.607,0.18 0.86,0.345c0.252,0.165 0.456,0.386 0.612,0.664c0.155,0.277 0.233,0.624 0.233,1.041c0,0.405 -0.1,0.762 -0.299,1.07c-0.199,0.308 -0.486,0.547 -0.859,0.715l1.681,2.681l-2.56,0l-1.27,-2.364l-0.066,0l0,2.364l-2.149,0l0,-6.615Zm2.131,2.794l0.439,0c0.075,0 0.157,-0.006 0.247,-0.019c0.091,-0.012 0.175,-0.039 0.253,-0.079c0.077,-0.041 0.143,-0.097 0.196,-0.168c0.053,-0.072 0.079,-0.167 0.079,-0.285c0,-0.119 -0.022,-0.212 -0.065,-0.281c-0.044,-0.068 -0.1,-0.119 -0.168,-0.154c-0.069,-0.034 -0.144,-0.056 -0.225,-0.065c-0.081,-0.009 -0.155,-0.014 -0.224,-0.014l-0.532,0l0,1.065Z"
        style="fill:#25aae2;fill-rule:nonzero;"/><path
        d="M43.531,20.76l4.55,0l0,1.85l-2.457,0l0,0.57l2.308,0l0,1.729l-2.308,0l0,0.616l2.616,0l0,1.85l-4.709,0l0,-6.615Z"
        style="fill:#25aae2;fill-rule:nonzero;"/></g><g><clipPath id="_clip1"><path d="M34.845,7.908l0,11.724l-22.867,0l0,-1.369l11.734,-10.355l11.133,0Z"/></clipPath>
    <g clip-path="url(#_clip1)"><path d="M16.586,8.888c0,-1.31 0.231,-2.497 0.694,-3.561c0.462,-1.063 1.094,-1.973 1.896,-2.728c0.802,-0.756 1.746,-1.338 2.833,-1.746c1.086,-0.409 2.246,-0.613 3.48,-0.613c1.264,0 2.458,0.204 3.584,0.613c1.125,0.408 2.066,0.959 2.821,1.653l-3.376,4.07c-0.308,-0.401 -0.694,-0.705 -1.156,-0.914c-0.463,-0.208 -0.979,-0.312 -1.55,-0.312c-0.462,0 -0.894,0.081 -1.295,0.243c-0.4,0.162 -0.751,0.397 -1.052,0.705c-0.3,0.309 -0.535,0.683 -0.705,1.122c-0.169,0.439 -0.254,0.929 -0.254,1.468c0,0.54 0.088,1.022 0.266,1.445c0.177,0.424 0.416,0.791 0.716,1.099c0.301,0.308 0.652,0.543 1.053,0.705c0.4,0.162 0.824,0.243 1.271,0.243c0.632,0 1.176,-0.131 1.631,-0.393c0.454,-0.262 0.813,-0.571 1.075,-0.925l3.376,4.046c-0.74,0.74 -1.65,1.33 -2.729,1.769c-1.079,0.44 -2.304,0.659 -3.676,0.659c-1.234,0 -2.394,-0.208 -3.48,-0.624c-1.087,-0.416 -2.031,-1.006 -2.833,-1.769c-0.802,-0.763 -1.434,-1.672 -1.896,-2.728c-0.463,-1.056 -0.694,-2.232 -0.694,-3.527Z" style="fill:#25aae2;fill-rule:nonzero;"/></g>
    <clipPath id="_clip2"><path d="M35.31,-2.403l-23.796,0l0,21.075l12.198,-10.764l11.598,0l0,-10.311Z"/></clipPath>
    <g clip-path="url(#_clip2)"><path d="M16.586,8.888c0,-1.31 0.231,-2.497 0.694,-3.561c0.462,-1.063 1.094,-1.973 1.896,-2.728c0.802,-0.756 1.746,-1.338 2.833,-1.746c1.086,-0.409 2.246,-0.613 3.48,-0.613c1.264,0 2.458,0.204 3.584,0.613c1.125,0.408 2.066,0.959 2.821,1.653l-3.376,4.07c-0.308,-0.401 -0.694,-0.705 -1.156,-0.914c-0.463,-0.208 -0.979,-0.312 -1.55,-0.312c-0.462,0 -0.894,0.081 -1.295,0.243c-0.4,0.162 -0.751,0.397 -1.052,0.705c-0.3,0.309 -0.535,0.683 -0.705,1.122c-0.169,0.439 -0.254,0.929 -0.254,1.468c0,0.54 0.088,1.022 0.266,1.445c0.177,0.424 0.416,0.791 0.716,1.099c0.301,0.308 0.652,0.543 1.053,0.705c0.4,0.162 0.824,0.243 1.271,0.243c0.632,0 1.176,-0.131 1.631,-0.393c0.454,-0.262 0.813,-0.571 1.075,-0.925l3.376,4.046c-0.74,0.74 -1.65,1.33 -2.729,1.769c-1.079,0.44 -2.304,0.659 -3.676,0.659c-1.234,0 -2.394,-0.208 -3.48,-0.624c-1.087,-0.416 -2.031,-1.006 -2.833,-1.769c-0.802,-0.763 -1.434,-1.672 -1.896,-2.728c-0.463,-1.056 -0.694,-2.232 -0.694,-3.527Z" style="fill:#0f75bd;fill-rule:nonzero;"/></g></g></g></svg>