<?xml version="1.0" encoding="utf-8"?>
<!-- Generator: Adobe Illustrator 25.4.1, SVG Export Plug-In . SVG Version: 6.00 Build 0)  -->
<svg version="1.1" id="eng_ico" xmlns="http://www.w3.org/2000/svg" xmlns:xlink="http://www.w3.org/1999/xlink" x="0px" y="0px"
	 viewBox="0 0 640 512" style="enable-background:new 0 0 640 512;" xml:space="preserve">
<style type="text/css">
	.st0{fill:#0052B8;}
	.st1{fill:#FFFFFF;}
	.st2{fill:#FE0016;}
</style>
<g>
	<path class="st0" d="M266.3,59.8c-25.5,6.9-48.9,18.7-69.4,34.3l69.4,69.4V59.8z"/>
	<path class="st0" d="M158,132.9c-15.6,20.4-27.3,43.9-34.3,69.4h103.6L158,132.9z"/>
	<path class="st0" d="M123.8,309.7c6.9,25.5,18.7,48.9,34.3,69.4l69.4-69.4H123.8z"/>
	<path class="st0" d="M516.2,202.3c-6.9-25.5-18.7-48.9-34.3-69.4l-69.4,69.4H516.2z"/>
	<path class="st0" d="M443.1,94c-20.4-15.6-43.9-27.3-69.4-34.3v103.6L443.1,94z"/>
	<path class="st0" d="M196.9,418c20.4,15.6,43.9,27.3,69.4,34.3V348.6L196.9,418z"/>
	<path class="st0" d="M373.7,452.2c25.5-6.9,48.9-18.7,69.4-34.3l-69.4-69.4V452.2z"/>
	<path class="st0" d="M482,379.1c15.6-20.4,27.3-43.9,34.3-69.4H412.6L482,379.1z"/>
	<path class="st1" d="M374.3,202.3h38.3l69.4-69.4c-5.5-7.2-11.4-14.1-17.8-20.5L374.3,202.3z"/>
	<path class="st1" d="M266.3,335.3l-76.8,76.8c2.4,2,4.9,4,7.4,5.9l69.4-69.4V335.3z"/>
	<path class="st1" d="M265.5,309.7h-38.1L158,379.1c5.5,7.2,11.4,14,17.7,20.4L265.5,309.7z"/>
	<path class="st1" d="M373.7,176.5l76.7-76.7c-2.4-2-4.8-3.9-7.3-5.8l-69.4,69.4V176.5z"/>
	<path class="st2" d="M374.3,202.3l89.8-89.8c-4.4-4.4-9-8.6-13.8-12.6l-76.7,76.7v25.8H374.3z"/>
	<path class="st2" d="M265.5,309.7l-89.7,89.7c4.4,4.4,9,8.6,13.8,12.6l76.8-76.8v-25.6H265.5z"/>
	<path class="st1" d="M240.5,202.3l-76.7-76.7c-2,2.4-3.9,4.8-5.8,7.3l69.4,69.4H240.5z"/>
	<path class="st1" d="M266.3,201.7v-38.3L196.9,94c-7.2,5.5-14.1,11.4-20.5,17.8L266.3,201.7z"/>
	<path class="st1" d="M373.7,310.5v38.1l69.4,69.4c7.2-5.5,14-11.4,20.4-17.7L373.7,310.5z"/>
	<path class="st1" d="M399.3,309.7l76.8,76.8c2-2.4,4-4.9,5.9-7.4l-69.4-69.4H399.3z"/>
	<path class="st2" d="M266.3,201.7l-89.8-89.8c-4.4,4.4-8.6,9-12.6,13.8l76.7,76.7h25.8V201.7z"/>
	<path class="st2" d="M373.7,310.5l89.7,89.7c4.4-4.4,8.6-9,12.6-13.8l-76.8-76.8h-25.6V310.5z"/>
	<path class="st1" d="M290.4,187.5V54.8c-8.2,1.2-16.2,2.9-24.1,5v103.6L290.4,187.5z"/>
	<path class="st1" d="M290.4,324.5l-24.1,24.1v103.6c7.8,2.1,15.9,3.8,24.1,5V324.5z"/>
	<path class="st1" d="M349.6,324.5v132.7c8.2-1.2,16.2-2.9,24.1-5V348.6L349.6,324.5z"/>
	<path class="st1" d="M349.6,187.5l24.1-24.1V59.8c-7.8-2.1-15.9-3.8-24.1-5V187.5z"/>
	<polygon class="st1" points="266.3,335.3 266.3,348.6 290.4,324.5 290.4,311.2 	"/>
	<polygon class="st1" points="373.7,176.5 373.7,163.4 349.6,187.5 349.6,200.6 	"/>
	<polygon class="st1" points="349.6,202.3 373.7,202.3 373.7,176.5 349.6,200.6 	"/>
	<polygon class="st1" points="290.4,309.7 266.3,309.7 266.3,335.3 290.4,311.2 	"/>
	<polygon class="st1" points="290.4,202.3 290.4,187.5 266.3,163.4 266.3,201.7 266.9,202.3 	"/>
	<polygon class="st1" points="349.6,309.7 349.6,324.5 373.7,348.6 373.7,310.5 372.9,309.7 	"/>
	<polygon class="st1" points="266.9,202.3 266.3,201.7 266.3,202.3 	"/>
	<polygon class="st1" points="372.9,309.7 373.7,310.5 373.7,309.7 	"/>
	<path class="st1" d="M250.4,225.3l-23-23H123.8c-2,7.5-3.7,15.2-4.9,23H250.4z"/>
	<path class="st1" d="M250.4,286.7H118.9c1.2,7.8,2.8,15.5,4.9,23h103.6L250.4,286.7z"/>
	<path class="st1" d="M389.6,225.3h131.5c-1.2-7.8-2.8-15.5-4.9-23H412.6L389.6,225.3z"/>
	<path class="st1" d="M389.6,286.7l23,23h103.6c2-7.5,3.7-15.2,4.9-23H389.6z"/>
	<polygon class="st1" points="373.7,225.3 389.6,225.3 412.6,202.3 374.3,202.3 373.7,202.9 	"/>
	<polygon class="st1" points="266.3,286.7 250.4,286.7 227.4,309.7 265.5,309.7 266.3,308.9 	"/>
	<polygon class="st1" points="373.7,202.9 374.3,202.3 373.7,202.3 	"/>
	<polygon class="st1" points="266.3,308.9 265.5,309.7 266.3,309.7 	"/>
	<polygon class="st1" points="240.5,202.3 227.4,202.3 250.4,225.3 263.5,225.3 	"/>
	<polygon class="st1" points="399.3,309.7 412.6,309.7 389.6,286.7 376.3,286.7 	"/>
	<polygon class="st1" points="266.3,225.3 266.3,202.3 240.5,202.3 263.5,225.3 	"/>
	<polygon class="st1" points="373.7,286.7 373.7,309.7 399.3,309.7 376.3,286.7 	"/>
	<polygon class="st1" points="373.7,225.3 373.7,202.9 351.3,225.3 	"/>
	<polygon class="st1" points="266.3,286.7 266.3,308.9 288.5,286.7 	"/>
	<polygon class="st1" points="351.3,225.3 373.7,202.9 373.7,202.3 349.6,202.3 349.6,225.3 	"/>
	<polygon class="st1" points="288.5,286.7 266.3,308.9 266.3,309.7 290.4,309.7 290.4,286.7 	"/>
	<polygon class="st1" points="349.6,286.7 349.6,309.7 372.9,309.7 349.9,286.7 	"/>
	<polygon class="st1" points="290.4,225.3 290.4,202.3 266.9,202.3 289.9,225.3 	"/>
	<polygon class="st1" points="266.9,202.3 266.3,202.3 266.3,225.3 289.9,225.3 	"/>
	<polygon class="st1" points="372.9,309.7 373.7,309.7 373.7,286.7 349.9,286.7 	"/>
	<path class="st2" d="M266.3,241.2l-15.9-15.9H118.9c-1.5,10-2.3,20.3-2.3,30.7s0.8,20.7,2.3,30.7h131.5l15.9-15.9V241.2z"/>
	<path class="st2" d="M373.7,241.2v29.6l15.9,15.9h131.5c1.5-10,2.3-20.3,2.3-30.7s-0.8-20.7-2.3-30.7H389.6L373.7,241.2z"/>
	<polygon class="st2" points="373.7,241.2 389.6,225.3 373.7,225.3 	"/>
	<polygon class="st2" points="266.3,270.8 250.4,286.7 266.3,286.7 	"/>
	<polygon class="st2" points="373.7,284.1 376.3,286.7 389.6,286.7 373.7,270.8 	"/>
	<polygon class="st2" points="266.3,228.1 263.5,225.3 250.4,225.3 266.3,241.2 	"/>
	<polygon class="st2" points="263.5,225.3 266.3,228.1 266.3,225.3 	"/>
	<polygon class="st2" points="376.3,286.7 373.7,284.1 373.7,286.7 	"/>
	<polygon class="st2" points="266.3,241.2 266.3,270.8 281.1,256 	"/>
	<polygon class="st2" points="373.7,270.8 373.7,241.2 358.9,256 	"/>
	<polygon class="st2" points="351.3,225.3 349.6,227 349.6,246.7 358.9,256 373.7,241.2 373.7,225.3 	"/>
	<polygon class="st2" points="290.4,284.8 290.4,265.3 281.1,256 266.3,270.8 266.3,286.7 288.5,286.7 	"/>
	<polygon class="st2" points="349.6,227 351.3,225.3 349.6,225.3 	"/>
	<polygon class="st2" points="288.5,286.7 290.4,286.7 290.4,284.8 	"/>
	<polygon class="st2" points="349.9,286.7 349.6,286.4 349.6,286.7 	"/>
	<polygon class="st2" points="352.3,262.6 373.7,284.1 373.7,270.8 358.9,256 	"/>
	<polygon class="st2" points="287.6,249.4 266.3,228.1 266.3,241.2 281.1,256 	"/>
	<polygon class="st2" points="289.9,225.3 290.4,225.8 290.4,225.3 	"/>
	<polygon class="st2" points="287.6,249.4 281.1,256 290.4,265.3 290.4,252.2 	"/>
	<polygon class="st2" points="352.3,262.6 358.9,256 349.6,246.7 349.6,260 	"/>
	<polygon class="st2" points="290.4,246.7 290.4,225.8 289.9,225.3 266.3,225.3 266.3,228.1 287.6,249.4 	"/>
	<polygon class="st2" points="290.4,246.7 287.6,249.4 290.4,252.2 	"/>
	<polygon class="st2" points="349.6,265.3 349.6,286.4 349.9,286.7 373.7,286.7 373.7,284.1 352.3,262.6 	"/>
	<polygon class="st2" points="349.6,265.3 352.3,262.6 349.6,260 	"/>
	<path class="st2" d="M334.8,202.3l14.8-14.8V54.8c-9.7-1.4-19.6-2.2-29.6-2.2s-20,0.7-29.6,2.2v132.7l14.8,14.8H334.8z"/>
	<path class="st2" d="M305.2,309.7l-14.8,14.8v132.7c9.7,1.4,19.6,2.2,29.6,2.2s20-0.7,29.6-2.2V324.5l-14.8-14.8H305.2z"/>
	<polygon class="st2" points="347.9,202.3 349.6,200.6 349.6,187.5 334.8,202.3 	"/>
	<polygon class="st2" points="291.9,309.7 290.4,311.2 290.4,324.5 305.2,309.7 	"/>
	<polygon class="st2" points="349.6,200.6 347.9,202.3 349.6,202.3 	"/>
	<polygon class="st2" points="290.4,311.2 291.9,309.7 290.4,309.7 	"/>
	<polygon class="st2" points="305.2,202.3 290.4,187.5 290.4,202.3 	"/>
	<polygon class="st2" points="334.8,309.7 349.6,324.5 349.6,309.7 	"/>
	<polygon class="st2" points="334.8,202.3 305.2,202.3 320,217.1 	"/>
	<polygon class="st2" points="305.2,309.7 334.8,309.7 320,294.9 	"/>
	<polygon class="st2" points="326.6,223.6 347.9,202.3 334.8,202.3 320,217.1 	"/>
	<polygon class="st2" points="313.4,288.3 291.9,309.7 305.2,309.7 320,294.9 	"/>
	<polygon class="st2" points="328.2,225.3 349.6,225.3 349.6,202.3 347.9,202.3 326.6,223.6 	"/>
	<polygon class="st2" points="311.8,286.7 290.4,286.7 290.4,309.7 291.9,309.7 313.4,288.3 	"/>
	<polygon class="st2" points="328.2,286.7 320,294.9 334.8,309.7 349.6,309.7 349.6,286.7 	"/>
	<polygon class="st2" points="311.8,225.3 320,217.1 305.2,202.3 290.4,202.3 290.4,225.3 	"/>
	<polygon class="st2" points="326.6,223.6 320,217.1 311.8,225.3 324.9,225.3 	"/>
	<polygon class="st2" points="313.4,288.3 320,294.9 328.2,286.7 314.9,286.7 	"/>
	<polygon class="st2" points="328.2,225.3 326.6,223.6 324.9,225.3 	"/>
	<polygon class="st2" points="311.8,286.7 313.4,288.3 314.9,286.7 	"/>
	<polygon class="st2" points="349.6,246.7 349.6,227 339.8,236.8 	"/>
	<polygon class="st2" points="290.4,265.3 290.4,284.8 300.2,275.1 	"/>
	<polygon class="st2" points="328.2,225.3 339.8,236.8 349.6,227 349.6,225.3 	"/>
	<polygon class="st2" points="290.4,284.8 290.4,286.7 311.8,286.7 300.2,275.1 	"/>
	<polygon class="st2" points="311.8,225.3 290.4,225.3 290.4,225.8 300.8,236.2 	"/>
	<polygon class="st2" points="328.2,286.7 349.6,286.7 349.6,286.4 339.1,275.8 	"/>
	<polygon class="st2" points="306.7,268.5 290.4,252.2 290.4,265.3 300.2,275.1 	"/>
	<polygon class="st2" points="320.6,256 321,256.4 308.4,269 320.5,281.1 314.9,286.7 328.2,286.7 339.1,275.8 331.9,268.7 
		345.1,255.5 349.6,260 349.6,246.7 339.8,236.8 	"/>
	<polygon class="st2" points="307.4,242.8 324.9,225.3 311.8,225.3 300.8,236.2 	"/>
	<polygon class="st2" points="307.4,242.8 320.6,256 339.8,236.8 328.2,225.3 324.9,225.3 	"/>
	<polygon class="st2" points="320.5,281.1 308.4,269 307.8,269.6 306.7,268.5 300.2,275.1 311.8,286.7 314.9,286.7 	"/>
	<polygon class="st2" points="290.4,225.8 290.4,246.7 300.8,236.2 	"/>
	<polygon class="st2" points="306.7,268.5 307.3,267.9 308.4,269 321,256.4 320.6,256 319.6,257 306.4,243.8 307.4,242.8 
		300.8,236.2 290.4,246.7 290.4,252.2 	"/>
	
		<rect x="312.8" y="240.6" transform="matrix(0.7071 -0.7071 0.7071 0.7071 -84.8734 294.8754)" class="st2" width="1.4" height="18.7"/>
	
		<rect x="307.1" y="268" transform="matrix(0.7071 -0.7071 0.7071 0.7071 -99.943 296.1799)" class="st2" width="0.9" height="1.5"/>
	<polygon class="st2" points="349.6,286.4 349.6,265.3 339.1,275.8 	"/>
	<polygon class="st2" points="345.1,255.5 331.9,268.7 339.1,275.8 349.6,265.3 349.6,260 	"/>
</g>
</svg>
